File Name

The Cartel 2009 BRRip H264.mp4

File Size
Format : MPEG-4
Format profile : Base Media
Codec ID : isom
File size : 1.63 GiB
Duration : 1h 27mn
Overall bit rate : 2 675 Kbps

Video
ID : 1
Format : AVC
Format/Info : Advanced Video Codec
Format profile : High@L4.1
Format settings, CABAC : Yes
Format settings, ReFrames : 3 frames
Codec ID : avc1
Codec ID/Info : Advanced Video Coding
Duration : 1h 26mn
Bit rate mode : Variable
Bit rate : 2 099 Kbps
Maximum bit rate : 9 156 Kbps
Width : 1 280 pixels
Height : 544 pixels
Display aspect ratio : 2.35:1
Frame rate mode : Constant
Frame rate : 23.976 fps
Resolution : 24 bits
Colorimetry : 4:2:0
Scan type : Progressive
Bits/(Pixel*Frame) : 0.126
Stream size : 1.27 GiB (78%)

Audio #1
ID : 2
Format : AAC
Format/Info : Advanced Audio Codec
Format version : Version 4
Format profile : LC
Format settings, SBR : No
Codec ID : 40
Duration : 1h 27mn
Bit rate mode : Variable
Bit rate : 128 Kbps
Maximum bit rate : 135 Kbps
Channel(s) : 2 channels
Channel positions : L R
Sampling rate : 48.0 KHz
Resolution : 16 bits
Stream size : 79.7 MiB (5%)

Audio #2
ID : 3
Format : AAC
Format/Info : Advanced Audio Codec
Format version : Version 4
Format profile : LC
Format settings, SBR : No
Codec ID : 40
Duration : 1h 27mn
Bit rate mode : Variable
Bit rate : 448 Kbps
Maximum bit rate : 460 Kbps
Channel(s) : 6 channels
Channel positions : Front: L C R, Rear: L R, LFE
Sampling rate : 48.0 KHz
Resolution : 16 bits
Stream size : 279 MiB (17%)

English SRT : External

Language : English,HC English Forced when needed


 
http://www.imdb.com/title/tt0493463/

Release Date: 12 May 2009 (USA) 

Genre: Drama | Thriller 

Plot: Mexico's most notorious drug lord schools a naïve journalist as to the principles behind The Cartel's success.

Cast: 
José Luis Franco ... Angel Santana
Freddy Douglas ... Jules Land
Mauricio Islas ... Santos
Tania Arredondo ... Dolores Santana
Howard Gibson ... Vern
Miguel Rodarte ... Pancho
Gustavo Sanchez-Parra ... Rojas
Gustavo Sánchez Parra ... Rojas
Rafael Oliveira ... Ned Constantine
Alejandro de la Madrid ... Officer Solana
Khotan ... Caronte
José Sefami ... Don Amilkar
Hector Kotsifakis ... Young Angel Santana
Humberto Elizondo ... Pedro Santana
Tom Martino ... Tom Donaldson



Screenshots
 
http://postimg.com/image/19000/18355.jpg
 
http://postimg.com/image/19000/18356.jpg